<svg xmlns="http://www.w3.org/2000/svg" fill="none" viewBox="-0.5 -0.5 20 20" height="20" width="20"><g id="convert-PDF-2--essential-files-folder-convert-to-PDF"><path id="Vector" fill="#ffffff" d="M16.964 16.964a1.357 1.357 0 0 1 -1.357 1.357h-12.214a1.357 1.357 0 0 1 -1.357 -1.357v-14.929a1.357 1.357 0 0 1 1.357 -1.357H12.214L16.964 5.429v11.536Z" stroke-width="1"></path><path id="Vector_2" stroke="#f11a7b" stroke-linecap="round" stroke-linejoin="round" d="M16.964 16.964a1.357 1.357 0 0 1 -1.357 1.357h-12.214a1.357 1.357 0 0 1 -1.357 -1.357v-14.929a1.357 1.357 0 0 1 1.357 -1.357H12.214L16.964 5.429v11.536Z" stroke-width="1"></path><path id="Vector 1238" stroke="#f11a7b" stroke-linecap="round" stroke-linejoin="round" d="M7.193 4.773C5.437 5.293 12.757 14.114 13.537 12.096c0.782 -2.019 -9.615 0.584 -7.903 2.018C7.346 15.55 8.948 4.252 7.193 4.773Z" stroke-width="1"></path></g></svg>