<svg xmlns="http://www.w3.org/2000/svg" fill="none" viewBox="-0.5 -0.5 70 70" height="70" width="70"><path fill="#ffef5e" d="M67.563 4.442v40.25h-20.125a2.875 2.875 0 0 0 -2.875 2.875v20.125h-40.25a2.875 2.875 0 0 1 -2.875 -2.875v-60.375a2.875 2.875 0 0 1 2.875 -2.875h60.375a2.875 2.875 0 0 1 2.875 2.875Z" stroke-width="1"></path><path fill="#ffbc44" d="m67.563 44.692 -23 23v-20.125a2.875 2.875 0 0 1 2.875 -2.875h20.125Z" stroke-width="1"></path><path stroke="#191919" stroke-linecap="round" stroke-linejoin="round" d="M67.563 4.442v40.25h-20.125a2.875 2.875 0 0 0 -2.875 2.875v20.125h-40.25a2.875 2.875 0 0 1 -2.875 -2.875v-60.375a2.875 2.875 0 0 1 2.875 -2.875h60.375a2.875 2.875 0 0 1 2.875 2.875Z" stroke-width="1"></path><path stroke="#191919" stroke-linecap="round" stroke-linejoin="round" d="m67.563 44.692 -23 23v-20.125a2.875 2.875 0 0 1 2.875 -2.875h20.125Z" stroke-width="1"></path><path stroke="#191919" stroke-linecap="round" stroke-linejoin="round" d="m14.375 28.75 2.875 -2.875a4.068 4.068 0 0 1 5.75 0 4.068 4.068 0 0 0 5.75 0 4.068 4.068 0 0 1 5.75 0 4.068 4.068 0 0 0 5.75 0 4.068 4.068 0 0 1 5.75 0 4.068 4.068 0 0 0 5.75 0l2.875 -2.875" stroke-width="1"></path><path stroke="#191919" stroke-linecap="round" stroke-linejoin="round" d="m14.375 43.125 2.875 -2.875a4.068 4.068 0 0 1 5.75 0 4.068 4.068 0 0 0 5.75 0" stroke-width="1"></path></svg>